<?xml version="1.0" encoding="UTF-8"?>
<mxfile host="app.diagrams.net" modified="15-circuit-breaker-pattern" agent="PlantUML Converter" version="1.0" etag="plantuml-diagram" type="device">
  <diagram id="plantuml-15-circuit-breaker-pattern" name="15-circuit-breaker-pattern">
    <mxGraphModel dx="1422" dy="794" grid="1" gridSize="10" guides="1" tooltips="1" connect="1" arrows="1" fold="1" page="1" pageScale="1" pageWidth="827" pageHeight="1169" math="0" shadow="0">
      <root>
        <mxCell id="0" />
        <mxCell id="1" parent="0" />
        <mxCell id="plantuml-container" value="" style="shape=image;html=1;verticalAlign=top;verticalLabelPosition=bottom;labelBackgroundColor=#ffffff;imageAspect=0;aspect=fixed;image=data:image/svg+xml,PHN2ZyB4bWxucz0iaHR0cDovL3d3dy53My5vcmcvMjAwMC9zdmciIHdpZHRoPSI0MDAiIGhlaWdodD0iMzAwIiB2aWV3Qm94PSIwIDAgNDAwIDMwMCI+CiAgPHJlY3Qgd2lkdGg9IjQwMCIgaGVpZ2h0PSIzMDAiIGZpbGw9IiNmOGY5ZmEiIHN0cm9rZT0iI2RlZTJlNiIvPgogIDx0ZXh0IHg9IjIwMCIgeT0iMTUwIiB0ZXh0LWFuY2hvcj0ibWlkZGxlIiBmb250LWZhbWlseT0iQXJpYWwiIGZvbnQtc2l6ZT0iMTQiIGZpbGw9IiM2Yzc1N2QiPgogICAgRGlhZ3JhbWEgUGxhbnRVTUw6IDE1LWNpcmN1aXQtYnJlYWtlci1wYXR0ZXJuCiAgPC90ZXh0PgogIDx0ZXh0IHg9IjIwMCIgeT0iMTcwIiB0ZXh0LWFuY2hvcj0ibWlkZGxlIiBmb250LWZhbWlseT0iQXJpYWwiIGZvbnQtc2l6ZT0iMTIiIGZpbGw9IiM2Yzc1N2QiPgogICAgKFNWRyBuw6NvIGRpc3BvbsOtdmVsIC0gdXNlIG8gY8OzZGlnbyBQbGFudFVNTCBpbmNvcnBvcmFkbykKICA8L3RleHQ+Cjwvc3ZnPg==;plantuml=QHN0YXJ0dW1sCiFpbmNsdWRlIGh0dHBzOi8vcmF3LmdpdGh1YnVzZXJjb250ZW50LmNvbS9wbGFudHVtbC1zdGRsaWIvQzQtUGxhbnRVTUwvbWFzdGVyL0M0X0NvbnRhaW5lci5wdW1sCgp0aXRsZSBDaXJjdWl0IEJyZWFrZXIgUGF0dGVybiBmb3IgUmVzaWxpZW50IE1pY3Jvc2VydmljZXMKClBlcnNvbihjbGllbnQsICJDbGllbnQgQXBwbGljYXRpb24iLCAiRnJvbnRlbmQgb3IgQVBJIGNvbnN1bWVyIikKClN5c3RlbV9Cb3VuZGFyeShnYXRld2F5LCAiQVBJIEdhdGV3YXkgTGF5ZXIiKSB7CiAgICBDb250YWluZXIoYXBpX2dhdGV3YXksICJBUEkgR2F0ZXdheSIsICJLb25nL1p1dWwiLCAiUmVxdWVzdCByb3V0aW5nIHdpdGggY2lyY3VpdCBicmVha2VyIikKICAgIENvbnRhaW5lcihjaXJjdWl0X2JyZWFrZXIsICJDaXJjdWl0IEJyZWFrZXIiLCAiSHlzdHJpeC9SZXNpbGllbmNlNGoiLCAiRmFpbHVyZSBkZXRlY3Rpb24gYW5kIHByZXZlbnRpb24iKQp9CgpTeXN0ZW1fQm91bmRhcnkobG9hZF9iYWxhbmNlciwgIkxvYWQgQmFsYW5jZXIgTGF5ZXIiKSB7CiAgICBDb250YWluZXIobG9hZF9iYWxhbmNlciwgIkxvYWQgQmFsYW5jZXIiLCAiSEFQcm94eS9BTEIiLCAiVHJhZmZpYyBkaXN0cmlidXRpb24gd2l0aCBoZWFsdGggY2hlY2tzIikKfQoKU3lzdGVtX0JvdW5kYXJ5KHNlcnZpY2VzLCAiTWljcm9zZXJ2aWNlcyBMYXllciIpIHsKICAgIENvbnRhaW5lcihvcmRlcl9zZXJ2aWNlXzEsICJPcmRlciBTZXJ2aWNlIDEiLCAiSmF2YS9TcHJpbmcgQm9vdCIsICJIZWFsdGh5IGluc3RhbmNlIikKICAgIENvbnRhaW5lcihvcmRlcl9zZXJ2aWNlXzIsICJPcmRlciBTZXJ2aWNlIDIiLCAiSmF2YS9TcHJpbmcgQm9vdCIsICJEZWdyYWRlZCBpbnN0YW5jZSIpCiAgICBDb250YWluZXIob3JkZXJfc2VydmljZV8zLCAiT3JkZXIgU2VydmljZSAzIiwgIkphdmEvU3ByaW5nIEJvb3QiLCAiRmFpbGVkIGluc3RhbmNlIikKICAgIAogICAgQ29udGFpbmVyKHBheW1lbnRfc2VydmljZSwgIlBheW1lbnQgU2VydmljZSIsICJOb2RlLmpzIiwgIkV4dGVybmFsIHBheW1lbnQgcHJvY2Vzc2luZyIpCiAgICBDb250YWluZXIoaW52ZW50b3J5X3NlcnZpY2UsICJJbnZlbnRvcnkgU2VydmljZSIsICJQeXRob24iLCAiU3RvY2sgbWFuYWdlbWVudCBzZXJ2aWNlIikKICAgIENvbnRhaW5lcihub3RpZmljYXRpb25fc2VydmljZSwgIk5vdGlmaWNhdGlvbiBTZXJ2aWNlIiwgIkdvIiwgIk5vdGlmaWNhdGlvbiBkZWxpdmVyeSIpCn0KClN5c3RlbV9Cb3VuZGFyeShmYWxsYmFjaywgIkZhbGxiYWNrIE1lY2hhbmlzbXMiKSB7CiAgICBDb250YWluZXIoY2FjaGVfZmFsbGJhY2ssICJDYWNoZSBGYWxsYmFjayIsICJSZWRpcyIsICJDYWNoZWQgcmVzcG9uc2VzIGZvciBkZWdyYWRlZCBzZXJ2aWNlIikKICAgIENvbnRhaW5lcihkZWZhdWx0X3Jlc3BvbnNlLCAiRGVmYXVsdCBSZXNwb25zZSIsICJTdGF0aWMgRGF0YSIsICJQcmVkZWZpbmVkIGZhbGxiYWNrIHJlc3BvbnNlcyIpCiAgICBDb250YWluZXIocXVldWVfZmFsbGJhY2ssICJRdWV1ZSBGYWxsYmFjayIsICJSYWJiaXRNUSIsICJBc3luYyBwcm9jZXNzaW5nIGZvciBmYWlsZWQgcmVxdWVzdHMiKQp9CgpTeXN0ZW1fQm91bmRhcnkobW9uaXRvcmluZywgIkNpcmN1aXQgQnJlYWtlciBNb25pdG9yaW5nIikgewogICAgQ29udGFpbmVyKG1ldHJpY3NfY29sbGVjdG9yLCAiTWV0cmljcyBDb2xsZWN0b3IiLCAiUHJvbWV0aGV1cyIsICJDaXJjdWl0IGJyZWFrZXIgc3RhdGUgbWV0cmljcyIpCiAgICBDb250YWluZXIoZGFzaGJvYXJkLCAiRGFzaGJvYXJkIiwgIkdyYWZhbmEiLCAiUmVhbC10aW1lIGNpcmN1aXQgYnJlYWtlciBzdGF0dXMiKQogICAgQ29udGFpbmVyKGFsZXJ0aW5nLCAiQWxlcnRpbmcgU3lzdGVtIiwgIkFsZXJ0TWFuYWdlciIsICJDaXJjdWl0IGJyZWFrZXIgc3RhdGUgYWxlcnRzIikKfQoKU3lzdGVtX0JvdW5kYXJ5KHN0YXRlcywgIkNpcmN1aXQgQnJlYWtlciBTdGF0ZXMiKSB7CiAgICBDb250YWluZXIoY2xvc2VkX3N0YXRlLCAiQ0xPU0VEIFN0YXRlIiwgIk5vcm1hbCBPcGVyYXRpb24iLCAiQWxsIHJlcXVlc3RzIHBhc3MgdGhyb3VnaCIpCiAgICBDb250YWluZXIob3Blbl9zdGF0ZSwgIk9QRU4gU3RhdGUiLCAiQ2lyY3VpdCBPcGVuIiwgIkFsbCByZXF1ZXN0cyBmYWlsIGZhc3QiKQogICAgQ29udGFpbmVyKGhhbGZfb3Blbl9zdGF0ZSwgIkhBTEYtT1BFTiBTdGF0ZSIsICJUZXN0aW5nIFJlY292ZXJ5IiwgIkxpbWl0ZWQgcmVxdWVzdHMgYWxsb3dlZCIpCn0KClN5c3RlbV9Cb3VuZGFyeShkYXRhLCAiRGF0YSBMYXllciIpIHsKICAgIENvbnRhaW5lckRiKG9yZGVyX2RiLCAiT3JkZXIgRGF0YWJhc2UiLCAiUG9zdGdyZVNRTCIsICJPcmRlciBkYXRhIHN0b3JhZ2UiKQogICAgQ29udGFpbmVyRGIocGF5bWVudF9kYiwgIlBheW1lbnQgRGF0YWJhc2UiLCAiUG9zdGdyZVNRTCIsICJQYXltZW50IHRyYW5zYWN0aW9uIGRhdGEiKQogICAgQ29udGFpbmVyRGIoaW52ZW50b3J5X2RiLCAiSW52ZW50b3J5IERhdGFiYXNlIiwgIlBvc3RncmVTUUwiLCAiU3RvY2sgbGV2ZWwgZGF0YSIpCn0KCicgTm9ybWFsIHJlcXVlc3QgZmxvdyAoQ2lyY3VpdCBDbG9zZWQpClJlbChjbGllbnQsIGFwaV9nYXRld2F5LCAiMS4gUmVxdWVzdCIsICJIVFRQUyIpClJlbChhcGlfZ2F0ZXdheSwgY2lyY3VpdF9icmVha2VyLCAiMi4gQ2hlY2sgY2lyY3VpdCBzdGF0ZSIsICJJbnRlcm5hbCIpClJlbChjaXJjdWl0X2JyZWFrZXIsIGxvYWRfYmFsYW5jZXIsICIzLiBGb3J3YXJkIHJlcXVlc3QgKENMT1NFRCkiLCAiSFRUUCIpClJlbChsb2FkX2JhbGFuY2VyLCBvcmRlcl9zZXJ2aWNlXzEsICI0LiBSb3V0ZSB0byBoZWFsdGh5IGluc3RhbmNlIiwgIkhUVFAiKQpSZWwob3JkZXJfc2VydmljZV8xLCBvcmRlcl9kYiwgIjUuIFF1ZXJ5IGRhdGFiYXNlIiwgIlNRTCIpClJlbChvcmRlcl9zZXJ2aWNlXzEsIHBheW1lbnRfc2VydmljZSwgIjYuIENhbGwgcGF5bWVudCBzZXJ2aWNlIiwgIkhUVFAiKQpSZWwocGF5bWVudF9zZXJ2aWNlLCBwYXltZW50X2RiLCAiNy4gUHJvY2VzcyBwYXltZW50IiwgIlNRTCIpCgonIFNlcnZpY2UgZGVwZW5kZW5jaWVzClJlbChvcmRlcl9zZXJ2aWNlXzEsIGludmVudG9yeV9zZXJ2aWNlLCAiQ2hlY2sgc3RvY2siLCAiSFRUUCIpClJlbChvcmRlcl9zZXJ2aWNlXzEsIG5vdGlmaWNhdGlvbl9zZXJ2aWNlLCAiU2VuZCBub3RpZmljYXRpb25zIiwgIkhUVFAiKQpSZWwoaW52ZW50b3J5X3NlcnZpY2UsIGludmVudG9yeV9kYiwgIlVwZGF0ZSBzdG9jayIsICJTUUwiKQoKJyBDaXJjdWl0IGJyZWFrZXIgZmFpbHVyZSBkZXRlY3Rpb24KUmVsKGxvYWRfYmFsYW5jZXIsIG9yZGVyX3NlcnZpY2VfMiwgIkhlYWx0aCBjaGVjayAoZGVncmFkZWQpIiwgIkhUVFAiKQpSZWwobG9hZF9iYWxhbmNlciwgb3JkZXJfc2VydmljZV8zLCAiSGVhbHRoIGNoZWNrIChmYWlsZWQpIiwgIkhUVFAiKQpSZWwoY2lyY3VpdF9icmVha2VyLCBtZXRyaWNzX2NvbGxlY3RvciwgIlJlcG9ydCBmYWlsdXJlcyIsICJIVFRQIikKCicgRmFsbGJhY2sgbWVjaGFuaXNtcwpSZWwoY2lyY3VpdF9icmVha2VyLCBjYWNoZV9mYWxsYmFjaywgIkZhbGxiYWNrIHRvIGNhY2hlIChPUEVOKSIsICJSZWRpcyBQcm90b2NvbCIpClJlbChjaXJjdWl0X2JyZWFrZXIsIGRlZmF1bHRfcmVzcG9uc2UsICJSZXR1cm4gZGVmYXVsdCByZXNwb25zZSIsICJJbnRlcm5hbCIpClJlbChjaXJjdWl0X2JyZWFrZXIsIHF1ZXVlX2ZhbGxiYWNrLCAiUXVldWUgZm9yIGxhdGVyIHByb2Nlc3NpbmciLCAiQU1RUCIpCgonIENpcmN1aXQgYnJlYWtlciBzdGF0ZSB0cmFuc2l0aW9ucwpSZWwoY2xvc2VkX3N0YXRlLCBvcGVuX3N0YXRlLCAiRmFpbHVyZSB0aHJlc2hvbGQgZXhjZWVkZWQiLCAiU3RhdGUgVHJhbnNpdGlvbiIpClJlbChvcGVuX3N0YXRlLCBoYWxmX29wZW5fc3RhdGUsICJUaW1lb3V0IHBlcmlvZCBlbGFwc2VkIiwgIlN0YXRlIFRyYW5zaXRpb24iKQpSZWwoaGFsZl9vcGVuX3N0YXRlLCBjbG9zZWRfc3RhdGUsICJUZXN0IHJlcXVlc3RzIHN1Y2Nlc3NmdWwiLCAiU3RhdGUgVHJhbnNpdGlvbiIpClJlbChoYWxmX29wZW5fc3RhdGUsIG9wZW5fc3RhdGUsICJUZXN0IHJlcXVlc3RzIGZhaWxlZCIsICJTdGF0ZSBUcmFuc2l0aW9uIikKCicgTW9uaXRvcmluZyBhbmQgYWxlcnRpbmcKUmVsKG1ldHJpY3NfY29sbGVjdG9yLCBkYXNoYm9hcmQsICJWaXN1YWxpemUgbWV0cmljcyIsICJIVFRQIikKUmVsKG1ldHJpY3NfY29sbGVjdG9yLCBhbGVydGluZywgIlRyaWdnZXIgYWxlcnRzIiwgIkhUVFAiKQoKJyBSZWNvdmVyeSB0ZXN0aW5nIChIYWxmLU9wZW4gc3RhdGUpClJlbChjaXJjdWl0X2JyZWFrZXIsIG9yZGVyX3NlcnZpY2VfMiwgIlRlc3QgcmVxdWVzdCAoSEFMRi1PUEVOKSIsICJIVFRQIikKCm5vdGUgcmlnaHQgb2YgY2lyY3VpdF9icmVha2VyCiAgKipDaXJjdWl0IEJyZWFrZXIgQ29uZmlndXJhdGlvbjoqKgogIOKAoiBGYWlsdXJlIHRocmVzaG9sZDogNTAlIGluIDEwIHJlcXVlc3RzCiAg4oCiIFRpbWVvdXQgcGVyaW9kOiA2MCBzZWNvbmRzCiAg4oCiIFN1Y2Nlc3MgdGhyZXNob2xkOiAzIGNvbnNlY3V0aXZlIHN1Y2Nlc3NlcwogIOKAoiBSZXF1ZXN0IHZvbHVtZSB0aHJlc2hvbGQ6IDIwIHJlcXVlc3RzCiAg4oCiIFNsaWRpbmcgd2luZG93OiAxMCBzZWNvbmRzCmVuZCBub3RlCgpub3RlIHJpZ2h0IG9mIGNsb3NlZF9zdGF0ZQogICoqQ0xPU0VEIFN0YXRlIChOb3JtYWwpOioqCiAg4oCiIEFsbCByZXF1ZXN0cyBwYXNzIHRocm91Z2gKICDigKIgTW9uaXRvcnMgZmFpbHVyZSByYXRlCiAg4oCiIENvdW50cyBzdWNjZXNzZnVsL2ZhaWxlZCByZXF1ZXN0cwogIOKAoiBUcmFuc2l0aW9ucyB0byBPUEVOIG9uIHRocmVzaG9sZCBicmVhY2gKZW5kIG5vdGUKCm5vdGUgcmlnaHQgb2Ygb3Blbl9zdGF0ZQogICoqT1BFTiBTdGF0ZSAoQ2lyY3VpdCBUcmlwcGVkKToqKgogIOKAoiBBbGwgcmVxdWVzdHMgZmFpbCBpbW1lZGlhdGVseQogIOKAoiBSZXR1cm5zIGZhbGxiYWNrIHJlc3BvbnNlCiAg4oCiIFByZXZlbnRzIGNhc2NhZGluZyBmYWlsdXJlcwogIOKAoiBXYWl0cyBmb3IgdGltZW91dCBwZXJpb2QKZW5kIG5vdGUKCm5vdGUgcmlnaHQgb2YgaGFsZl9vcGVuX3N0YXRlCiAgKipIQUxGLU9QRU4gU3RhdGUgKFRlc3RpbmcpOioqCiAg4oCiIExpbWl0ZWQgcmVxdWVzdHMgYWxsb3dlZCB0aHJvdWdoCiAg4oCiIFRlc3RzIHNlcnZpY2UgcmVjb3ZlcnkKICDigKIgTW9uaXRvcnMgc3VjY2VzcyByYXRlCiAg4oCiIFRyYW5zaXRpb25zIGJhc2VkIG9uIHRlc3QgcmVzdWx0cwplbmQgbm90ZQoKbm90ZSBsZWZ0IG9mIGNhY2hlX2ZhbGxiYWNrCiAgKipGYWxsYmFjayBTdHJhdGVnaWVzOioqCiAg4oCiIENhY2hlZCBwcmV2aW91cyByZXNwb25zZXMKICDigKIgRGVmYXVsdC9zdGF0aWMgcmVzcG9uc2VzCiAg4oCiIERlZ3JhZGVkIGZ1bmN0aW9uYWxpdHkKICDigKIgQXN5bmMgcHJvY2Vzc2luZyBxdWV1ZQogIOKAoiBHcmFjZWZ1bCBkZWdyYWRhdGlvbgplbmQgbm90ZQoKbm90ZSBsZWZ0IG9mIG1ldHJpY3NfY29sbGVjdG9yCiAgKipNb25pdG9yaW5nIE1ldHJpY3M6KioKICDigKIgQ2lyY3VpdCBicmVha2VyIHN0YXRlIGNoYW5nZXMKICDigKIgUmVxdWVzdCBzdWNjZXNzL2ZhaWx1cmUgcmF0ZXMKICDigKIgUmVzcG9uc2UgdGltZXMKICDigKIgRmFsbGJhY2sgdXNhZ2UgZnJlcXVlbmN5CiAg4oCiIFNlcnZpY2UgaGVhbHRoIGluZGljYXRvcnMKZW5kIG5vdGUKCm5vdGUgcmlnaHQgb2YgbG9hZF9iYWxhbmNlcgogICoqSGVhbHRoIENoZWNrIEludGVncmF0aW9uOioqCiAg4oCiIFJlbW92ZXMgdW5oZWFsdGh5IGluc3RhbmNlcwogIOKAoiBDb29yZGluYXRlcyB3aXRoIGNpcmN1aXQgYnJlYWtlcgogIOKAoiBQcm92aWRlcyBzZXJ2aWNlIGRpc2NvdmVyeQogIOKAoiBJbXBsZW1lbnRzIHJldHJ5IGxvZ2ljCiAg4oCiIFN1cHBvcnRzIGdyYWNlZnVsIHNodXRkb3duCmVuZCBub3RlCgpub3RlIGxlZnQgb2YgcXVldWVfZmFsbGJhY2sKICAqKkFzeW5jIEZhbGxiYWNrIFByb2Nlc3Npbmc6KioKICDigKIgUXVldWVzIGZhaWxlZCByZXF1ZXN0cwogIOKAoiBSZXRyeSB3aXRoIGV4cG9uZW50aWFsIGJhY2tvZmYKICDigKIgRGVhZCBsZXR0ZXIgcXVldWUgZm9yIHBlcm1hbmVudCBmYWlsdXJlcwogIOKAoiBCYXRjaCBwcm9jZXNzaW5nIGR1cmluZyByZWNvdmVyeQogIOKAoiBQcmlvcml0eS1iYXNlZCBwcm9jZXNzaW5nCmVuZCBub3RlCgpAZW5kdW1s;" vertex="1" parent="1">
          <mxGeometry x="40" y="40" width="400" height="300" as="geometry" />
        </mxCell>
      </root>
    </mxGraphModel>
  </diagram>
</mxfile>